<?xml version="1.0" encoding="utf-8"?>
<!-- Generator: Adobe Illustrator 24.0.2, SVG Export Plug-In . SVG Version: 6.00 Build 0)  -->
<svg version="1.1" id="Layer_1" xmlns="http://www.w3.org/2000/svg" xmlns:xlink="http://www.w3.org/1999/xlink" x="0px" y="0px"
	 viewBox="0 0 1288.8 344.1" style="enable-background:new 0 0 1288.8 344.1;" xml:space="preserve">
<style type="text/css">
	.st0{fill:#F4F4F4;stroke:#F4F4F4;stroke-width:2;stroke-miterlimit:10;}
	.st1{fill:#4E5CA6;}
	.st2{font-family:'Alphakind';}
	.st3{font-size:306.7155px;}
	.st4{fill:#303031;}
</style>
<path class="st0" d="M97.9,7.7h150.5c49.2,0,89.1,39.9,89.1,89.1v150.5c0,49.2-39.9,89.1-89.1,89.1H97.9
	c-49.2,0-89.1-39.9-89.1-89.1V96.8C8.8,47.6,48.7,7.7,97.9,7.7z"/>
<text transform="matrix(1 0 0 1 48.3862 292.9504)" class="st1 st2 st3">M</text>
<g>
	<path class="st4" d="M425.9,86.8h29.4L492,189.2c4.6,13.1,9,26.6,13.6,39.9h1.2c4.6-13.3,8.6-26.8,13.3-39.9l36.3-102.4h29.4v191.6
		H563V172.9c0-16.7,1.9-39.7,3.1-56.7h-1.2L549.7,160l-36.1,99.1h-16.2L461.2,160L446,116.3h-1.2c1.2,17,3.1,40,3.1,56.7v105.5
		h-22.1V86.8H425.9z"/>
	<path class="st4" d="M625.4,207.7c0-47.4,31-74.7,65.8-74.7s65.8,27.3,65.8,74.7c0,47-31,74.3-65.8,74.3
		C656.3,282,625.4,254.7,625.4,207.7z M732.1,207.7c0-32.5-16.5-54.7-41-54.7c-24.4,0-41,22.1-41,54.7s16.5,54.3,41,54.3
		C715.5,262,732.1,240.2,732.1,207.7z"/>
	<path class="st4" d="M778.4,262.3l11.9-15.8c12.3,9.9,24.9,16.8,41.9,16.8c18.6,0,27.9-9.9,27.9-22c0-14.6-16.8-21.1-32.5-26.9
		c-19.9-7.3-42.3-17.1-42.3-41c0-22.7,18.2-40.3,49-40.3c17.7,0,33.1,7.2,44.1,16l-11.5,15.4c-9.8-7.2-19.8-12.6-32.4-12.6
		c-17.9,0-26.1,9.5-26.1,20.4c0,13.5,15.4,18.6,31.5,24.6c20.5,7.7,43.3,16,43.3,43.1c0,23-18.3,42.2-51.8,42.2
		C811.2,282,791.8,273.4,778.4,262.3z"/>
	<path class="st4" d="M920.7,234.6v-78.5h-21.1v-18.2l22.2-1.4l2.9-39.8h20.1v39.8h38.5v19.6h-38.5V235c0,17.4,5.6,27.4,22,27.4
		c5,0,11.6-1.9,16.2-3.8l4.6,18.1c-8,2.7-17.5,5.3-26.3,5.3C931,282,920.7,262.8,920.7,234.6z"/>
	<path class="st4" d="M999.9,137.9l20.3-1.4h53v19.6h-73.4v-18.2L999.9,137.9L999.9,137.9z M1019.2,114.1
		c0-28.8,13.1-47.2,41.6-47.2c8.6,0,17.1,2.2,23.6,4.9l-5.1,18.3c-5.4-2.5-11-3.7-16.1-3.7c-13.4,0-20,9.4-20,27.7v164.3h-24
		L1019.2,114.1L1019.2,114.1z"/>
	<path class="st4" d="M1091.7,241.6c0-30.9,26.7-46.4,87.2-53c-0.1-18.3-6.1-35.9-29.3-35.9c-16.4,0-31.2,7.8-42.3,15.2l-9.4-16.5
		c13.1-8.6,33-18.5,55.8-18.5c34.6,0,49.3,23,49.3,58.4v87.1h-20l-2-17h-0.8c-13.5,11.3-29.3,20.5-46.9,20.5
		C1109.5,282,1091.7,267.2,1091.7,241.6z M1178.9,243.8v-39.4c-47.6,5.7-63.6,17.4-63.6,35.5c0,16.1,10.9,22.7,24.9,22.7
		C1153.8,262.6,1165.1,255.9,1178.9,243.8z"/>
</g>
</svg>
