<?xml version="1.0" encoding="utf-8"?>
<!-- Generator: Adobe Illustrator 24.0.2, SVG Export Plug-In . SVG Version: 6.00 Build 0)  -->
<svg version="1.1" id="Layer_1" xmlns="http://www.w3.org/2000/svg" xmlns:xlink="http://www.w3.org/1999/xlink" x="0px" y="0px"
	 viewBox="0 0 102 102" style="enable-background:new 0 0 102 102;" xml:space="preserve">
<style type="text/css">
	.st0{fill:#3B82FC;}
	.st1{fill-rule:evenodd;clip-rule:evenodd;fill:#FFFFFF;}
</style>
<path class="st0" d="M49.4,9.6c10.6,0,20.7,4.2,28.2,11.7c7.5,7.5,11.7,17.6,11.7,28.2V83c0,1.7-0.7,3.3-1.8,4.4
	c-1.2,1.2-2.8,1.8-4.4,1.8H49.4c-10.6,0-20.7-4.2-28.2-11.7C13.8,70.1,9.6,60,9.6,49.4c0-10.6,4.2-20.7,11.7-28.2
	C28.7,13.8,38.8,9.6,49.4,9.6z"/>
<path class="st1" d="M48.5,28L48.5,28c-11.8,0-21.5,9.6-21.5,21.5s9.6,21.5,21.5,21.5c4.4,0,8.4-1.3,11.8-3.5l8.2,2.6l-2.7-8
	c2.6-3.5,4.1-7.9,4.1-12.6C70,37.6,60.4,28,48.5,28z M60.6,58.3c-0.5,1.5-2.6,2.7-4.2,3c-1.1,0.2-2.6,0.4-7.5-1.6
	c-5.8-2.4-9.7-8.1-10.6-9.2c-0.1-0.1-0.1-0.2-0.1-0.2c0,0,0,0,0,0c-0.4-0.5-2.5-3.4-2.5-6.4c0-3,1.5-4.5,2.1-5.2c0,0,0,0,0.1-0.1
	c0.5-0.5,1.4-0.8,2.2-0.8c0.2,0,0.5,0,0.7,0c0,0,0,0,0.1,0c0.6,0,0.9,0.1,1.4,1.1c0.2,0.4,0.4,0.9,0.6,1.5c0.6,1.4,1.2,2.9,1.3,3.2
	c0.2,0.3,0.3,0.7,0.1,1.2c-0.2,0.4-0.4,0.6-0.6,0.9c0,0,0,0-0.1,0.1c-0.1,0.2-0.3,0.3-0.4,0.4c-0.2,0.2-0.4,0.4-0.5,0.6c0,0,0,0,0,0
	c-0.3,0.3-0.6,0.7-0.2,1.3c0.4,0.6,1.6,2.7,3.5,4.3c2.2,2,4,2.7,4.8,3c0.1,0,0.1,0.1,0.2,0.1c0.5,0.2,1.1,0.2,1.5-0.2
	c0.4-0.4,0.9-1.2,1.4-1.9c0.1-0.1,0.2-0.2,0.2-0.3c0.4-0.6,1-0.7,1.5-0.5c0.6,0.2,3.6,1.7,4.3,2c0.1,0.1,0.3,0.1,0.4,0.2
	c0.4,0.2,0.7,0.3,0.8,0.6C61.1,55.6,61.1,56.8,60.6,58.3z"/>
</svg>
